<?xml version="1.0" encoding="iso-8859-1"?>
<!-- Generator: Adobe Illustrator 19.0.0, SVG Export Plug-In . SVG Version: 6.00 Build 0)  -->
<svg xmlns="http://www.w3.org/2000/svg" xmlns:xlink="http://www.w3.org/1999/xlink" version="1.1" id="Capa_1" x="0px" y="0px" viewBox="0 0 59.864 59.864" style="enable-background:new 0 0 59.864 59.864;" xml:space="preserve" width="512px" height="512px">
<g>
	<path d="M47.436,0h-2.003h-7h-30v17.007v20v16.989h4v5.868l4-2.666l4,2.666v-5.868h18h7h2.003c2.204,0,3.997-1.793,3.997-3.996   V37.007v-20V3.996C51.432,1.793,49.639,0,47.436,0z M18.432,56.128l-2-1.334l-2,1.334v-2.132h4V56.128z M39.432,14v3.007v20V41   v10.996h-19h-8h-2V37.007h28v-20h-28V2h29V14z M49.432,17.007h-4v20h4V50c0,1.101-0.896,1.996-1.997,1.996h-3.003V41v-3.993v-20V14   V2h3.003c1.101,0,1.997,0.896,1.997,1.996V17.007z" fill="#FFFFFF"/>
</g>
<g>
</g>
<g>
</g>
<g>
</g>
<g>
</g>
<g>
</g>
<g>
</g>
<g>
</g>
<g>
</g>
<g>
</g>
<g>
</g>
<g>
</g>
<g>
</g>
<g>
</g>
<g>
</g>
<g>
</g>
</svg>
